<svg width="20" height="17" viewBox="0 0 20 17" fill="none" xmlns="http://www.w3.org/2000/svg">
<mask id="path-1-inside-1_123_115" fill="white">
<path fill-rule="evenodd" clip-rule="evenodd" d="M17.5247 2.55499C15.7954 0.770062 12.9868 0.765212 11.2575 2.55014L10.038 3.80884L8.84241 2.57484C7.11306 0.789911 4.30924 0.789911 2.57989 2.57484L2.42958 2.72999C0.700232 4.51492 0.700232 7.40887 2.42958 9.1938L9.536 16.5287L9.5457 16.5186L9.90676 16.8913L17.5294 9.02366C19.2587 7.23873 19.254 4.33993 17.5247 2.55499Z"/>
</mask>
<path d="M11.2575 2.55014L11.9757 3.24598L11.9757 3.24598L11.2575 2.55014ZM17.5247 2.55499L18.2429 1.85916L18.2429 1.85916L17.5247 2.55499ZM10.038 3.80884L9.31978 4.50468L10.038 5.24597L10.7562 4.50468L10.038 3.80884ZM8.84241 2.57484L9.56061 1.87901L9.56061 1.87901L8.84241 2.57484ZM2.57989 2.57484L3.29809 3.27068L3.2981 3.27068L2.57989 2.57484ZM2.42958 2.72999L1.71138 2.03416L1.71138 2.03416L2.42958 2.72999ZM2.42958 9.1938L1.71138 9.88964L1.71138 9.88964L2.42958 9.1938ZM9.536 16.5287L8.8178 17.2245L9.53601 17.9658L10.2542 17.2245L9.536 16.5287ZM9.5457 16.5186L10.2639 15.8228L9.5457 15.0815L8.8275 15.8228L9.5457 16.5186ZM9.90676 16.8913L9.18856 17.5871L9.90676 18.3284L10.625 17.5871L9.90676 16.8913ZM17.5294 9.02366L16.8112 8.32782L16.8112 8.32782L17.5294 9.02366ZM11.9757 3.24598C13.3107 1.86807 15.4687 1.86998 16.8065 3.25083L18.2429 1.85916C16.1221 -0.329855 12.663 -0.337647 10.5393 1.85431L11.9757 3.24598ZM10.7562 4.50468L11.9757 3.24598L10.5393 1.85431L9.31978 3.11301L10.7562 4.50468ZM8.12421 3.27068L9.31978 4.50468L10.7562 3.11301L9.56061 1.87901L8.12421 3.27068ZM3.2981 3.27068C4.63452 1.8913 6.78779 1.8913 8.12421 3.27068L9.56061 1.87901C7.43834 -0.311478 3.98396 -0.311477 1.86169 1.87901L3.2981 3.27068ZM3.14778 3.42583L3.29809 3.27068L1.86169 1.87901L1.71138 2.03416L3.14778 3.42583ZM3.14778 8.49797C1.79416 7.10085 1.79416 4.82295 3.14778 3.42583L1.71138 2.03416C-0.393701 4.2069 -0.393701 7.7169 1.71138 9.88964L3.14778 8.49797ZM10.2542 15.8328L3.14778 8.49797L1.71138 9.88964L8.8178 17.2245L10.2542 15.8328ZM8.8275 15.8228L8.8178 15.8328L10.2542 17.2245L10.2639 17.2145L8.8275 15.8228ZM10.625 16.1955L10.2639 15.8228L8.8275 17.2145L9.18856 17.5871L10.625 16.1955ZM16.8112 8.32782L9.18856 16.1955L10.625 17.5871L18.2476 9.71949L16.8112 8.32782ZM16.8065 3.25083C18.1614 4.64929 18.1635 6.93204 16.8112 8.32782L18.2476 9.71949C20.354 7.54541 20.3467 4.03056 18.2429 1.85916L16.8065 3.25083Z" fill="white" mask="url(#path-1-inside-1_123_115)"/>
</svg>
