<svg width="10" height="9" viewBox="0 0 10 9" fill="none" xmlns="http://www.w3.org/2000/svg">
<mask id="path-1-inside-1_164_104" fill="white">
<path fill-rule="evenodd" clip-rule="evenodd" d="M1.23757 1.35261C2.10354 0.406226 3.50756 0.406227 4.37353 1.35261L4.98093 2.01641L5.54113 1.40418C6.42656 0.436539 7.86212 0.43654 8.74755 1.40419C9.63298 2.37183 9.63298 3.9407 8.74755 4.90834L5.23192 8.75043L5.22707 8.74513L5.04654 8.94242L1.23757 4.77976C0.371597 3.83338 0.371598 2.29899 1.23757 1.35261Z"/>
</mask>
<path fill-rule="evenodd" clip-rule="evenodd" d="M1.23757 1.35261C2.10354 0.406226 3.50756 0.406227 4.37353 1.35261L4.98093 2.01641L5.54113 1.40418C6.42656 0.436539 7.86212 0.43654 8.74755 1.40419C9.63298 2.37183 9.63298 3.9407 8.74755 4.90834L5.23192 8.75043L5.22707 8.74513L5.04654 8.94242L1.23757 4.77976C0.371597 3.83338 0.371598 2.29899 1.23757 1.35261Z" fill="#D8D8D8"/>
<path d="M4.37353 1.35261L4.74241 1.01507L4.74241 1.01507L4.37353 1.35261ZM1.23757 1.35261L1.60645 1.69014L1.60645 1.69014L1.23757 1.35261ZM4.98093 2.01641L5.3498 2.35395L4.98093 2.75708L4.61205 2.35395L4.98093 2.01641ZM5.54113 1.40418L5.91001 1.74172L5.91001 1.74172L5.54113 1.40418ZM8.74755 1.40419L9.11643 1.06665L9.11643 1.06665L8.74755 1.40419ZM8.74755 4.90834L9.11643 5.24588L9.11643 5.24588L8.74755 4.90834ZM5.23192 8.75043L5.60079 9.08796L5.2319 9.49111L4.86303 9.08795L5.23192 8.75043ZM5.22707 8.74513L4.85819 8.40759L5.22708 8.00445L5.59596 8.40761L5.22707 8.74513ZM5.04654 8.94242L5.41541 9.27996L5.04654 9.68309L4.67766 9.27996L5.04654 8.94242ZM1.23757 4.77976L1.60645 4.44223L1.60645 4.44223L1.23757 4.77976ZM4.00465 1.69014C3.33689 0.960382 2.2742 0.960382 1.60645 1.69014L0.868691 1.01507C1.93288 -0.147929 3.67822 -0.147928 4.74241 1.01507L4.00465 1.69014ZM4.61205 2.35395L4.00465 1.69014L4.74241 1.01507L5.3498 1.67888L4.61205 2.35395ZM5.91001 1.74172L5.3498 2.35395L4.61205 1.67888L5.17226 1.06665L5.91001 1.74172ZM8.37867 1.74172C7.69146 0.990695 6.59722 0.990695 5.91001 1.74172L5.17226 1.06665C6.2559 -0.117616 8.03279 -0.117614 9.11643 1.06665L8.37867 1.74172ZM8.37867 4.57081C9.08927 3.79423 9.08927 2.5183 8.37867 1.74172L9.11643 1.06665C10.1767 2.22536 10.1767 4.08717 9.11643 5.24588L8.37867 4.57081ZM4.86304 8.41289L8.37867 4.57081L9.11643 5.24588L5.60079 9.08796L4.86304 8.41289ZM5.59596 8.40761L5.60081 8.4129L4.86303 9.08795L4.85818 9.08265L5.59596 8.40761ZM4.67766 8.60489L4.85819 8.40759L5.59595 9.08266L5.41541 9.27996L4.67766 8.60489ZM1.60645 4.44223L5.41541 8.60489L4.67766 9.27996L0.868691 5.1173L1.60645 4.44223ZM1.60645 1.69014C0.915305 2.44546 0.915305 3.68691 1.60645 4.44223L0.868691 5.1173C-0.172111 3.97985 -0.17211 2.15252 0.868691 1.01507L1.60645 1.69014Z" fill="#D8D8D8" mask="url(#path-1-inside-1_164_104)"/>
</svg>
