<svg width="20" height="17" viewBox="0 0 20 17" fill="none" xmlns="http://www.w3.org/2000/svg">
<mask id="path-1-inside-1_173_131" fill="white">
<path fill-rule="evenodd" clip-rule="evenodd" d="M2.4753 2.55499C4.20465 0.770062 7.01317 0.765211 8.74252 2.55014L9.96202 3.80884L11.1576 2.57484C12.8869 0.789911 15.6908 0.789911 17.4201 2.57484L17.5704 2.72999C19.2998 4.51492 19.2998 7.40887 17.5704 9.1938L10.464 16.5287L10.4543 16.5186L10.0932 16.8913L2.4706 9.02366C0.741252 7.23873 0.745952 4.33993 2.4753 2.55499Z"/>
</mask>
<path fill-rule="evenodd" clip-rule="evenodd" d="M2.4753 2.55499C4.20465 0.770062 7.01317 0.765211 8.74252 2.55014L9.96202 3.80884L11.1576 2.57484C12.8869 0.789911 15.6908 0.789911 17.4201 2.57484L17.5704 2.72999C19.2998 4.51492 19.2998 7.40887 17.5704 9.1938L10.464 16.5287L10.4543 16.5186L10.0932 16.8913L2.4706 9.02366C0.741252 7.23873 0.745952 4.33993 2.4753 2.55499Z" fill="#D8D8D8"/>
<path d="M8.74252 2.55014L8.38342 2.89806L8.38342 2.89806L8.74252 2.55014ZM2.4753 2.55499L2.8344 2.90291L2.8344 2.90291L2.4753 2.55499ZM9.96202 3.80884L10.3211 4.15676L9.96202 4.5274L9.60292 4.15676L9.96202 3.80884ZM11.1576 2.57484L10.7985 2.22693L10.7985 2.22693L11.1576 2.57484ZM17.4201 2.57484L17.061 2.92276L17.061 2.92276L17.4201 2.57484ZM17.5704 2.72999L17.9295 2.38207L17.9295 2.38207L17.5704 2.72999ZM17.5704 9.1938L17.9295 9.54172L17.9295 9.54172L17.5704 9.1938ZM10.464 16.5287L10.8231 16.8766L10.464 17.2472L10.1049 16.8766L10.464 16.5287ZM10.4543 16.5186L10.0952 16.1707L10.4543 15.8001L10.8134 16.1707L10.4543 16.5186ZM10.0932 16.8913L10.4523 17.2392L10.0932 17.6099L9.73414 17.2392L10.0932 16.8913ZM2.4706 9.02366L2.1115 9.37158L2.1115 9.37158L2.4706 9.02366ZM8.38342 2.89806C6.85124 1.31664 4.368 1.32002 2.8344 2.90291L2.1162 2.20708C4.04129 0.220103 7.1751 0.213782 9.10162 2.20223L8.38342 2.89806ZM9.60292 4.15676L8.38342 2.89806L9.10162 2.20223L10.3211 3.46093L9.60292 4.15676ZM11.5167 2.92276L10.3211 4.15676L9.60292 3.46093L10.7985 2.22693L11.5167 2.92276ZM17.061 2.92276C15.5281 1.34061 13.0496 1.34061 11.5167 2.92276L10.7985 2.22693C12.7243 0.239217 15.8534 0.239217 17.7792 2.22693L17.061 2.92276ZM17.2113 3.07791L17.061 2.92276L17.7792 2.22693L17.9295 2.38207L17.2113 3.07791ZM17.2113 8.84589C18.7528 7.25486 18.7528 4.66894 17.2113 3.07791L17.9295 2.38207C19.8467 4.36091 19.8467 7.56289 17.9295 9.54172L17.2113 8.84589ZM10.1049 16.1807L17.2113 8.84589L17.9295 9.54172L10.8231 16.8766L10.1049 16.1807ZM10.8134 16.1707L10.8231 16.1807L10.1049 16.8766L10.0952 16.8666L10.8134 16.1707ZM9.73414 16.5434L10.0952 16.1707L10.8134 16.8666L10.4523 17.2392L9.73414 16.5434ZM2.8297 8.67574L10.4523 16.5434L9.73414 17.2392L2.1115 9.37158L2.8297 8.67574ZM2.8344 2.90291C1.29227 4.49461 1.28887 7.08538 2.8297 8.67574L2.1115 9.37158C0.193638 7.39207 0.199634 4.18524 2.1162 2.20708L2.8344 2.90291Z" fill="#D8D8D8" mask="url(#path-1-inside-1_173_131)"/>
</svg>
