<svg width="20" height="20" viewBox="0 0 20 20" fill="none" xmlns="http://www.w3.org/2000/svg">
<g clip-path="url(#clip0_229_145)">
<path d="M3.54988 -0.0158156C3.63553 -0.0160387 3.72118 -0.0163109 3.80683 -0.016628C4.03823 -0.0173259 4.26962 -0.0172833 4.50101 -0.01706C4.69476 -0.0169388 4.8885 -0.0171776 5.08225 -0.017413C5.56573 -0.017992 6.04921 -0.0178525 6.53269 -0.0173793C6.92515 -0.0170157 7.3176 -0.0173805 7.71005 -0.018257C8.16727 -0.0192744 8.62448 -0.0197579 9.0817 -0.0194997C9.32318 -0.0193685 9.56466 -0.0194594 9.80614 -0.0201345C10.0334 -0.0207421 10.2606 -0.0205806 10.4878 -0.0198491C10.5708 -0.0197061 10.6537 -0.0198239 10.7367 -0.0202353C11.334 -0.0229698 11.9015 0.0143912 12.439 0.305143C12.4779 0.325513 12.4779 0.325513 12.5176 0.346295C12.7256 0.457969 12.9114 0.582536 13.086 0.742155C13.1382 0.78906 13.1382 0.78906 13.1916 0.836912C13.7656 1.37882 14.1286 2.12198 14.1564 2.91689C14.1575 3.00806 14.1578 3.09925 14.1576 3.19043C14.1578 3.23926 14.158 3.28808 14.1582 3.33839C14.1585 3.44071 14.1584 3.54302 14.1581 3.64534C14.1579 3.74966 14.158 3.85388 14.1589 3.95818C14.1601 4.10999 14.1602 4.26176 14.16 4.41357C14.1605 4.45992 14.1609 4.50628 14.1614 4.55403C14.1589 4.85065 14.1314 5.08545 13.9134 5.30621C13.8909 5.32036 13.8684 5.33451 13.8452 5.34909C13.8113 5.37137 13.8113 5.37137 13.7767 5.3941C13.5572 5.51276 13.2684 5.50761 13.0316 5.44339C12.8361 5.35606 12.7184 5.22618 12.6172 5.03903C12.5811 4.93062 12.5727 4.86314 12.5714 4.75103C12.5708 4.71658 12.5703 4.68212 12.5698 4.64663C12.5692 4.59078 12.5692 4.59078 12.5685 4.53381C12.5672 4.45444 12.566 4.37507 12.5646 4.2957C12.5628 4.171 12.5611 4.0463 12.5595 3.9216C12.5623 2.8956 12.5623 2.8956 12.0711 2.0242C11.6724 1.66478 11.2001 1.59524 10.6831 1.59631C10.6352 1.59617 10.6352 1.59617 10.5862 1.59604C10.4797 1.59579 10.3733 1.59582 10.2669 1.59586C10.1902 1.59574 10.1136 1.59561 10.0369 1.59546C9.82928 1.59511 9.62161 1.59502 9.41394 1.595C9.28404 1.59497 9.15413 1.59489 9.02423 1.59478C8.57058 1.59442 8.11693 1.59426 7.66327 1.59429C7.24115 1.59432 6.81904 1.5939 6.39692 1.59329C6.03388 1.59277 5.67085 1.59257 5.30781 1.59259C5.09126 1.5926 4.87472 1.59249 4.65817 1.59208C4.45438 1.5917 4.2506 1.5917 4.04681 1.59198C3.9723 1.59202 3.89779 1.59193 3.82328 1.59169C3.16956 1.58975 2.56955 1.59915 2.06332 2.06952C1.64246 2.53643 1.6347 3.08646 1.63543 3.6814C1.63535 3.73805 1.63526 3.7947 1.63516 3.85135C1.63492 4.00651 1.63492 4.16167 1.63497 4.31683C1.63498 4.48438 1.63476 4.65192 1.63458 4.81947C1.63425 5.14753 1.63415 5.47559 1.63412 5.80366C1.63411 6.07039 1.63403 6.33713 1.6339 6.60387C1.63356 7.36054 1.63338 8.11721 1.63341 8.87388C1.63341 8.93503 1.63341 8.93503 1.63341 8.99743C1.63341 9.05866 1.63341 9.05866 1.63342 9.12113C1.63343 9.7826 1.63306 10.4441 1.63251 11.1055C1.63195 11.7852 1.63168 12.4648 1.63171 13.1444C1.63172 13.5258 1.63162 13.9071 1.6312 14.2885C1.63084 14.6132 1.63076 14.938 1.63102 15.2627C1.63115 15.4283 1.63115 15.5938 1.63081 15.7594C1.6305 15.9112 1.63056 16.063 1.6309 16.2148C1.63096 16.2695 1.63089 16.3241 1.63067 16.3788C1.62841 16.9837 1.68147 17.516 2.10864 17.9757C2.50739 18.3352 2.97964 18.4047 3.49659 18.4036C3.52859 18.4037 3.56059 18.4038 3.59355 18.4039C3.69999 18.4041 3.80643 18.4041 3.91287 18.4041C3.98951 18.4042 4.06615 18.4043 4.14279 18.4045C4.35046 18.4048 4.55813 18.4049 4.7658 18.4049C4.8957 18.405 5.0256 18.4051 5.15551 18.4052C5.60916 18.4055 6.06281 18.4057 6.51646 18.4056C6.93858 18.4056 7.3607 18.406 7.78282 18.4066C8.14586 18.4072 8.50889 18.4074 8.87193 18.4073C9.08847 18.4073 9.30502 18.4074 9.52156 18.4079C9.72535 18.4082 9.92914 18.4082 10.1329 18.408C10.2074 18.4079 10.282 18.408 10.3565 18.4082C11.0102 18.4102 11.6102 18.4008 12.1164 17.9304C12.4991 17.5058 12.5435 17.0082 12.546 16.4624C12.5469 16.3829 12.5478 16.3035 12.5488 16.224C12.5501 16.1001 12.5513 15.9762 12.5518 15.8522C12.5524 15.7317 12.554 15.6112 12.5557 15.4907C12.5556 15.454 12.5556 15.4173 12.5555 15.3794C12.5604 15.1125 12.613 14.8886 12.8054 14.6937C12.8279 14.6796 12.8504 14.6654 12.8736 14.6508C12.8962 14.636 12.9188 14.6211 12.9421 14.6058C13.1616 14.4872 13.4504 14.4923 13.6872 14.5565C13.8827 14.6439 14.0004 14.7738 14.1016 14.9609C14.1415 15.0806 14.1463 15.1641 14.1476 15.2895C14.1481 15.3328 14.1486 15.3761 14.1491 15.4208C14.1495 15.4913 14.1495 15.4913 14.15 15.5632C14.1503 15.6118 14.1506 15.6604 14.1509 15.7106C14.1515 15.8139 14.1519 15.9172 14.1522 16.0206C14.1527 16.1768 14.1546 16.333 14.1563 16.4891C14.1603 17.1311 14.1479 17.7207 13.8355 18.2983C13.8219 18.3242 13.8083 18.3502 13.7943 18.3769C13.6826 18.5849 13.5581 18.7707 13.3985 18.9453C13.3672 18.9801 13.3359 19.015 13.3037 19.0509C12.7845 19.6009 12.0641 19.9771 11.2998 20.0109C11.0765 20.0169 10.8532 20.0163 10.6299 20.0158C10.5442 20.016 10.4586 20.0162 10.3729 20.0166C10.1415 20.0173 9.91012 20.0172 9.67873 20.017C9.48498 20.0169 9.29124 20.0171 9.09749 20.0173C8.61401 20.0179 8.13053 20.0178 7.64705 20.0173C7.25459 20.017 6.86214 20.0173 6.46968 20.0182C6.01247 20.0192 5.55526 20.0197 5.09804 20.0194C4.85655 20.0193 4.61508 20.0194 4.3736 20.0201C4.14636 20.0207 3.91914 20.0205 3.69191 20.0198C3.60896 20.0196 3.52601 20.0198 3.44306 20.0202C2.8457 20.0229 2.27828 19.9855 1.74075 19.6948C1.71481 19.6812 1.68886 19.6676 1.66214 19.6536C1.45418 19.542 1.26837 19.4174 1.09378 19.2578C1.05893 19.2265 1.02409 19.1952 0.988184 19.163C0.444573 18.6499 0.0853775 17.9531 0.0282898 17.2016C0.0239684 17.044 0.0232444 16.8869 0.0239437 16.7293C0.0237804 16.6687 0.0235663 16.6081 0.0233063 16.5475C0.0227452 16.3824 0.0229064 16.2173 0.0231957 16.0522C0.0233813 15.8736 0.022891 15.695 0.0224918 15.5164C0.0218217 15.1671 0.0217873 14.8177 0.0219923 14.4683C0.0221505 14.1842 0.0220935 13.9001 0.021885 13.616C0.0218558 13.5754 0.0218263 13.5349 0.0217962 13.4932C0.0217364 13.4109 0.0216765 13.3285 0.0216162 13.2462C0.0210805 12.4751 0.021292 11.704 0.0217404 10.9328C0.0221283 10.2283 0.0216231 9.52373 0.0206884 8.81918C0.0197346 8.09472 0.0193604 7.37026 0.01962 6.64579C0.0197562 6.23947 0.0196708 5.83316 0.0189852 5.42684C0.0184088 5.08094 0.0183872 4.73503 0.0190663 4.38913C0.0193977 4.21286 0.019485 4.0366 0.0188845 3.86034C0.0183403 3.69858 0.0185339 3.53683 0.0192844 3.37507C0.0194303 3.31695 0.0193201 3.25884 0.0189089 3.20072C0.0154961 2.68081 0.0939034 2.16448 0.344263 1.70163C0.357843 1.67569 0.371423 1.64974 0.385414 1.62302C0.497089 1.41506 0.621656 1.22925 0.781275 1.05466C0.812545 1.01981 0.843815 0.984965 0.876032 0.949064C1.61891 0.162109 2.51599 -0.018257 3.54988 -0.0158156Z" fill="#FF4E4E" fill-opacity="0.45"/>
<path d="M17.1583 6.66257C17.2004 6.66101 17.2425 6.65945 17.2859 6.65784C17.6578 6.71746 17.9193 7.04129 18.1741 7.29626C18.2159 7.33779 18.2577 7.3793 18.2995 7.4208C18.3868 7.50758 18.4739 7.59458 18.5608 7.68173C18.6712 7.79235 18.7823 7.90225 18.8936 8.01196C18.9801 8.09745 19.0661 8.1834 19.1521 8.26947C19.1928 8.31013 19.2337 8.35063 19.2747 8.39096C19.7208 8.83027 20.0079 9.2573 20.0146 9.89529C20.0146 9.93951 20.0147 9.98372 20.0147 10.0293C20.0157 10.0729 20.0167 10.1165 20.0176 10.1614C20.0198 10.7877 19.7409 11.2059 19.3114 11.6422C19.2522 11.7017 19.1927 11.7608 19.1332 11.8199C19.0913 11.8619 19.0493 11.904 19.0074 11.9461C18.9201 12.0336 18.8325 12.1208 18.7449 12.208C18.6329 12.3193 18.5214 12.4311 18.4101 12.5431C18.3238 12.6299 18.2373 12.7163 18.1506 12.8026C18.1094 12.8438 18.0683 12.885 18.0272 12.9263C17.9699 12.984 17.9122 13.0412 17.8543 13.0984C17.8217 13.131 17.789 13.1635 17.7554 13.1971C17.5271 13.391 17.3304 13.4217 17.0391 13.4147C16.8045 13.3841 16.6679 13.2728 16.5089 13.1054C16.3675 12.888 16.3248 12.6794 16.3673 12.4218C16.4636 12.1666 16.6188 11.9929 16.8122 11.8054C16.8397 11.7781 16.8673 11.7508 16.8956 11.7227C16.9828 11.6363 17.0705 11.5506 17.1583 11.4648C17.2178 11.4061 17.2773 11.3473 17.3368 11.2884C17.482 11.145 17.6276 11.002 17.7735 10.8593C17.7247 10.8593 17.6759 10.8592 17.6255 10.8592C16.466 10.8578 15.3064 10.8556 14.1468 10.8524C14.004 10.852 13.8613 10.8516 13.7185 10.8512C13.6901 10.8512 13.6617 10.8511 13.6324 10.851C13.1724 10.8498 12.7123 10.8491 12.2523 10.8487C11.7802 10.8482 11.308 10.8471 10.8359 10.8455C10.5708 10.8446 10.3056 10.844 10.0405 10.844C9.79089 10.8441 9.54133 10.8434 9.29176 10.8421C9.20018 10.8418 9.1086 10.8417 9.01701 10.8419C8.8919 10.8422 8.76682 10.8415 8.6417 10.8406C8.60553 10.8409 8.56935 10.8412 8.53208 10.8415C8.26971 10.838 8.04907 10.7818 7.85791 10.5931C7.84376 10.5706 7.82961 10.5481 7.81503 10.5249C7.80018 10.5023 7.78532 10.4797 7.77002 10.4564C7.65136 10.2369 7.65651 9.94805 7.72073 9.71127C7.80806 9.51571 7.93795 9.39802 8.12509 9.29684C8.23221 9.26114 8.29527 9.25276 8.40555 9.25237C8.43899 9.25215 8.47242 9.25194 8.50687 9.25172C8.54361 9.25168 8.58036 9.25164 8.61821 9.2516C8.65724 9.25141 8.69626 9.25122 8.73646 9.25102C8.86781 9.25042 8.99917 9.25009 9.13052 9.24976C9.22444 9.24939 9.31836 9.249 9.41228 9.24859C9.61479 9.24775 9.8173 9.24703 10.0198 9.24642C10.3126 9.24553 10.6054 9.24443 10.8982 9.24328C11.3732 9.24142 11.8483 9.23973 12.3233 9.23815C12.7848 9.23661 13.2463 9.23499 13.7078 9.23326C13.7362 9.23316 13.7647 9.23305 13.794 9.23294C13.9366 9.23241 14.0793 9.23187 14.222 9.23133C15.4058 9.22688 16.5897 9.22271 17.7735 9.21872C17.7497 9.19541 17.7497 9.19541 17.7254 9.17162C17.5595 9.00923 17.3942 8.84627 17.2292 8.68299C17.1676 8.6222 17.1059 8.56154 17.0441 8.50103C16.955 8.41384 16.8664 8.32615 16.7779 8.23834C16.7365 8.19816 16.7365 8.19816 16.6943 8.15717C16.4918 7.95482 16.3507 7.76224 16.3502 7.46335C16.3581 7.23707 16.4234 7.05829 16.5806 6.89313C16.7682 6.72976 16.9106 6.66756 17.1583 6.66257Z" fill="#FF4E4E" fill-opacity="0.45"/>
</g>
<defs>
<clipPath id="clip0_229_145">
<rect width="20" height="20" fill="white"/>
</clipPath>
</defs>
</svg>
