<svg width="20" height="20" viewBox="0 0 20 20" fill="none" xmlns="http://www.w3.org/2000/svg">
<path d="M20 10C20 15.5228 15.5228 20 10 20C4.47715 20 0 15.5228 0 10C0 4.47715 4.47715 0 10 0C15.5228 0 20 4.47715 20 10Z" fill="white"/>
<rect x="6.66675" y="6.66663" width="2.22222" height="7.77778" rx="1.11111" fill="#555555"/>
<path d="M11.1111 7.77774C11.1111 7.16409 11.6085 6.66663 12.2222 6.66663V6.66663C12.8358 6.66663 13.3333 7.16409 13.3333 7.77774V13.3333C13.3333 13.9469 12.8358 14.4444 12.2222 14.4444V14.4444C11.6085 14.4444 11.1111 13.9469 11.1111 13.3333V7.77774Z" fill="#555555"/>
</svg>
